<svg width="340" height="104" viewBox="0 0 340 104" fill="none" xmlns="http://www.w3.org/2000/svg">
<path d="M174.76 77V49H186.28C188.76 49 190.88 49.4 192.64 50.2C194.427 51 195.8 52.1467 196.76 53.64C197.72 55.1333 198.2 56.9067 198.2 58.96C198.2 61.0133 197.72 62.7867 196.76 64.28C195.8 65.7733 194.427 66.92 192.64 67.72C190.88 68.52 188.76 68.92 186.28 68.92H177.64L179.96 66.48V77H174.76ZM179.96 67.04L177.64 64.52H186.04C188.333 64.52 190.053 64.04 191.2 63.08C192.373 62.0933 192.96 60.72 192.96 58.96C192.96 57.1733 192.373 55.8 191.2 54.84C190.053 53.88 188.333 53.4 186.04 53.4H177.64L179.96 50.84V67.04ZM216.903 77.4C214.717 77.4 212.703 77.04 210.863 76.32C209.023 75.6 207.423 74.6 206.063 73.32C204.703 72.0133 203.65 70.4933 202.903 68.76C202.157 67 201.783 65.08 201.783 63C201.783 60.92 202.157 59.0133 202.903 57.28C203.65 55.52 204.703 54 206.063 52.72C207.423 51.4133 209.023 50.4 210.863 49.68C212.703 48.96 214.703 48.6 216.863 48.6C219.05 48.6 221.05 48.96 222.863 49.68C224.703 50.4 226.303 51.4133 227.663 52.72C229.023 54 230.077 55.52 230.823 57.28C231.57 59.0133 231.943 60.92 231.943 63C231.943 65.08 231.57 67 230.823 68.76C230.077 70.52 229.023 72.04 227.663 73.32C226.303 74.6 224.703 75.6 222.863 76.32C221.05 77.04 219.063 77.4 216.903 77.4ZM216.863 72.84C218.277 72.84 219.583 72.6 220.783 72.12C221.983 71.64 223.023 70.96 223.903 70.08C224.783 69.1733 225.463 68.1333 225.943 66.96C226.45 65.76 226.703 64.44 226.703 63C226.703 61.56 226.45 60.2533 225.943 59.08C225.463 57.88 224.783 56.84 223.903 55.96C223.023 55.0533 221.983 54.36 220.783 53.88C219.583 53.4 218.277 53.16 216.863 53.16C215.45 53.16 214.143 53.4 212.943 53.88C211.77 54.36 210.73 55.0533 209.823 55.96C208.943 56.84 208.25 57.88 207.743 59.08C207.263 60.2533 207.023 61.56 207.023 63C207.023 64.4133 207.263 65.72 207.743 66.92C208.25 68.12 208.943 69.1733 209.823 70.08C210.703 70.96 211.743 71.64 212.943 72.12C214.143 72.6 215.45 72.84 216.863 72.84ZM237.455 77V49H248.975C251.455 49 253.575 49.4 255.335 50.2C257.122 51 258.495 52.1467 259.455 53.64C260.415 55.1333 260.895 56.9067 260.895 58.96C260.895 61.0133 260.415 62.7867 259.455 64.28C258.495 65.7467 257.122 66.88 255.335 67.68C253.575 68.4533 251.455 68.84 248.975 68.84H240.335L242.655 66.48V77H237.455ZM255.775 77L248.695 66.84H254.255L261.375 77H255.775ZM242.655 67.04L240.335 64.56H248.735C251.029 64.56 252.749 64.0667 253.895 63.08C255.069 62.0933 255.655 60.72 255.655 58.96C255.655 57.1733 255.069 55.8 253.895 54.84C252.749 53.88 251.029 53.4 248.735 53.4H240.335L242.655 50.84V67.04ZM272.003 77V53.4H262.723V49H286.483V53.4H277.203V77H272.003ZM285.019 77L297.619 49H302.739L315.379 77H309.939L299.099 51.76H301.179L290.379 77H285.019ZM290.819 70.52L292.219 66.44H307.339L308.739 70.52H290.819ZM318.94 77V49H324.14V72.6H338.78V77H318.94Z" fill="#CFFFEA"/>
<g clip-path="url(#clip0_86_10)">
<path d="M99.6121 2.4763C99.457 2.5302 99.2211 2.65148 99.093 2.74581C98.8369 2.94121 98.2235 3.93166 97.9404 4.60545C97.8393 4.84801 97.7449 5.05014 97.7381 5.06362C97.7314 5.0771 97.4887 4.94907 97.1921 4.78063C96.2147 4.22139 95.0284 3.94514 93.9701 4.03274C93.4915 4.0799 93.4106 4.10685 93.2218 4.29551C93.0398 4.47743 92.9994 4.5785 92.959 4.97603C92.8309 6.16188 93.2421 8.28429 93.9499 10.0631C94.206 10.7099 94.8598 12.0103 95.1632 12.4887C95.689 13.3107 96.2552 14.5774 96.6664 15.8778C97.0236 17.0098 97.8662 18.3236 98.5605 18.8559C98.6886 18.957 98.783 19.0513 98.7695 19.0715C98.7493 19.085 98.21 18.93 97.5696 18.7212C94.0981 17.5959 90.6671 16.8952 86.589 16.4842C85.0993 16.336 79.6595 16.309 78.2641 16.4505C76.6059 16.6122 75.5678 16.7402 74.523 16.9087C64.877 18.4382 55.9725 22.683 48.7397 29.2052C47.7016 30.1418 45.1738 32.6819 44.1897 33.7802C34.5774 44.4866 28.5984 57.9891 27.1424 72.2531C27.0278 73.412 26.9671 74.1464 26.8323 76.4103L26.7986 76.9695H82.1468H137.502L137.455 76.0734C137.158 70.2587 136.187 64.444 134.61 58.9594C134.408 58.2586 134.246 57.632 134.246 57.5579C134.246 57.4905 134.381 57.1671 134.543 56.8437C134.893 56.143 135.102 55.5568 135.23 54.883C135.345 54.2833 135.351 54.1081 135.25 54.1688C135.122 54.2429 134.57 55.1458 134.138 55.9678C133.821 56.5877 133.713 56.7426 133.673 56.6416C133.646 56.5742 133.478 56.0958 133.302 55.577C132.702 53.8319 132.271 52.7202 131.442 50.7931C130.842 49.3917 129.231 46.1643 128.456 44.8032C127.856 43.7589 127.768 43.5365 127.91 43.4489C127.95 43.422 128.382 43.395 128.874 43.3883C130.114 43.3613 130.842 43.1188 131.786 42.3978C132.46 41.8858 132.817 41.0772 132.736 40.235L132.696 39.7701L133.046 39.3523C134.044 38.153 134.259 36.5292 133.606 35.1547C133.363 34.6561 133.255 34.5281 131.408 32.5269C129.602 30.5797 127.97 28.6931 126.305 26.6314C125.24 25.3107 124.566 24.738 123.427 24.1653C122.787 23.8419 121.998 23.5859 121.304 23.4713C120.111 23.2827 119.841 23.1951 118.85 22.6965C117.799 22.1709 116.956 21.8677 115.911 21.6521C115.008 21.4567 114.395 21.14 113.862 20.5741C113.329 20.0081 113.026 19.4084 112.945 18.7818C112.817 17.7577 112.433 17.1513 111.638 16.6863L111.301 16.4909L111.152 15.7565C110.984 14.9278 110.937 14.7728 110.492 13.7554C110.323 13.3646 110.134 12.8188 110.074 12.5426C109.871 11.6599 108.982 9.87442 108.004 8.41231C106.69 6.44487 105.16 5.17142 102.942 4.20118C102.43 3.97883 102.201 3.82386 101.681 3.35222C101.331 3.04227 100.927 2.71212 100.778 2.61779C100.434 2.41566 99.9828 2.36176 99.6121 2.4763ZM100.852 3.72279C101.075 3.87103 101.54 4.24161 101.89 4.54481C102.679 5.22533 103.198 5.56895 104.122 6.00018C105.025 6.42466 105.524 6.76829 106.043 7.30731C107.02 8.3382 107.431 9.28822 107.883 11.5858C108.294 13.6745 108.564 17.8722 108.564 22.2787C108.564 23.8082 108.584 24.3809 108.645 24.482C108.759 24.6572 108.638 24.8526 108.422 24.8526C108.287 24.8526 108.207 24.7448 107.91 24.1855C107.155 22.7504 106.413 21.8475 105.065 20.7088C104.668 20.3652 104.641 20.3585 104.749 20.5606C104.809 20.6751 104.937 20.9918 105.032 21.2613C105.712 23.1412 106.933 24.8593 108.436 26.0519L108.746 26.3012L108.887 26.1462C109.224 25.7824 109.238 25.715 109.238 23.7408C109.238 22.0362 109.251 21.8206 109.406 21.0794C109.636 19.9677 109.77 18.7885 109.824 17.4881C109.865 16.4101 109.871 16.3831 110.027 16.309C110.155 16.2551 110.222 16.2619 110.37 16.3764C110.68 16.6055 111.375 17.4814 111.698 18.0474C111.995 18.5797 112.002 18.5999 112.002 19.1995C112.002 20.1563 112.264 20.7762 112.939 21.4028C113.383 21.8206 113.828 22.0227 114.705 22.1979C115.682 22.4 116.774 22.7369 117.853 23.1816C119.086 23.6869 119.517 23.8284 120.852 24.1788C121.479 24.3472 122.227 24.5831 122.517 24.7111C123.178 24.9941 124.041 25.5533 124.566 26.0384C125.119 26.537 128.523 30.573 129.049 31.3411C129.359 31.7925 129.77 32.2439 130.532 32.9716C131.813 34.1912 132.595 35.0671 132.864 35.5859C133.053 35.943 133.066 36.0171 133.066 36.7111C133.066 37.4119 133.053 37.4725 132.857 37.8565C132.527 38.4832 131.846 39.0559 131.267 39.1974C131.01 39.258 131.031 39.3389 131.341 39.5343C131.631 39.7162 131.887 40.1676 131.887 40.4978C131.887 40.7875 131.536 41.4478 131.199 41.7914C130.808 42.189 130.39 42.4517 129.871 42.6067C129.319 42.7819 128.84 42.7752 128.119 42.5932C127.29 42.3844 126.238 42.3844 125.55 42.6C124.849 42.8156 124.573 42.9705 124.067 43.4287C123.131 44.2777 122.059 44.8639 120.859 45.1738C120.07 45.3759 118.506 45.3962 117.745 45.2142C116.403 44.8908 115.345 44.3114 114.327 43.3479C113.855 42.9032 113.215 42.3844 113.174 42.4248C113.161 42.4383 113.215 42.7752 113.296 43.1794C113.417 43.7926 113.437 44.1766 113.444 45.4366C113.444 46.8785 113.437 46.9863 113.269 47.5994C112.804 49.2502 111.887 50.6045 110.755 51.312C110.209 51.6488 109.663 52.1946 109.049 53.0099C108.402 53.8791 107.222 55.0447 106.407 55.6309C105.497 56.2777 104.095 56.9515 102.733 57.4029C101.486 57.8139 100.522 58.2384 99.6458 58.7707C98.9717 59.175 98.5403 59.2963 98.1426 59.1885C97.5899 59.0402 97.1787 58.636 97.0371 58.0969C96.9899 57.9218 96.9899 57.5175 97.0371 56.8437C97.1787 54.728 97.1113 51.5882 96.8618 49.2434C96.4844 45.605 96.0867 43.988 95.2171 42.5461C93.8757 40.3091 91.6445 38.7594 89.1235 38.3215C88.3213 38.18 86.8653 38.2271 86.0699 38.4225C84.8768 38.719 82.8748 39.5343 81.5401 40.2754C78.5944 41.906 75.8712 44.3451 74.8601 46.2451C74.8129 46.3395 75.096 46.1036 75.4937 45.7196C77.5361 43.7791 79.9965 41.9801 82.6456 40.4978C84.2701 39.5882 84.8364 39.4197 86.2182 39.4265C88.0315 39.4265 89.4268 40.0126 90.8289 41.3602C92.3051 42.7752 93.4173 44.7224 93.9027 46.7302C94.2532 48.1721 94.3947 50.8066 94.206 52.5113C93.8487 55.8667 92.7567 58.865 90.8491 61.7017C89.9391 63.0627 89.292 64.2822 89.4538 64.3429C89.5144 64.3698 89.7976 64.3766 90.0807 64.3564C90.7413 64.3159 91.1524 64.134 91.9546 63.5276C92.6287 63.0088 93.2893 62.6786 94.0577 62.4698C94.7722 62.2744 96.2484 62.2609 96.936 62.4428C98.5673 62.874 99.9896 63.9993 100.711 65.4411C100.96 65.933 100.94 66.3103 100.616 67.1121C100.172 68.2104 100.03 69.376 100.212 70.4137C100.252 70.6495 100.273 70.8651 100.252 70.8853C100.232 70.9055 99.9424 70.9325 99.6188 70.9459C98.8976 70.9729 98.4055 71.0942 97.6168 71.4513C96.7136 71.8623 96.1271 71.9499 95.0486 71.8555C93.3701 71.7141 91.476 71.7747 89.9998 72.0173C89.5279 72.0981 89.3459 72.1655 89.1504 72.3205C88.4696 72.8595 87.5798 73.0414 86.6901 72.8258C85.5779 72.563 84.4387 72.6304 83.3736 73.0347C82.6456 73.3176 82.2884 73.3985 81.6008 73.4389C80.2459 73.5265 79.2887 73.0212 78.7562 71.9297C78.554 71.5187 78.5338 71.4311 78.5338 70.8381C78.5338 70.2519 78.554 70.1576 78.7495 69.7601C78.891 69.4771 79.5718 68.581 80.6571 67.2536C81.5806 66.1149 82.3423 65.1649 82.3423 65.1447C82.3423 65.0099 80.9604 65.96 80.219 66.6001C79.282 67.4086 78.8978 67.8668 77.6575 69.6658C76.4037 71.485 74.3815 72.7786 72.2042 73.1627C70.9639 73.3783 69.8921 73.2368 69.0024 72.7517C68.1598 72.2935 67.6138 71.7208 67.1284 70.8112C66.7105 70.0094 66.1645 69.5377 66.0567 69.8746C66.0297 69.942 65.8814 70.2789 65.7129 70.6158C65.241 71.5928 64.2434 72.5563 63.2997 72.9605C62.2886 73.3918 61.1224 73.5063 60.1315 73.2705C59.3901 73.0886 58.5542 72.6978 58.1296 72.3205C57.6173 71.8758 56.9297 70.5282 56.5657 69.275C56.3904 68.6618 56.1882 67.6309 56.1882 67.3345C56.1882 67.2401 55.9927 66.7752 55.7501 66.2969C55.231 65.2727 55.0895 64.8415 54.9007 63.7095C54.7322 62.6786 54.4626 61.8364 54.0514 61.0616C53.6537 60.3002 53.2425 59.7679 52.4336 58.9459C51.7056 58.2047 51.4967 57.8544 51.3888 57.2075C51.3214 56.837 51.3416 56.6685 51.5371 55.7117C52.5213 50.8201 53.8829 46.582 55.8175 42.3709C56.141 41.6634 56.5657 40.7403 56.7612 40.3158C57.2465 39.2513 57.6981 38.3619 58.0554 37.7622C60.2394 34.1238 63.2525 31.3209 66.9464 29.4814C68.0384 28.9424 68.1193 28.9087 68.8271 28.7336C70.0809 28.4169 71.3279 27.9318 72.885 27.1502C74.7927 26.2001 75.5678 26.0317 77.3878 26.1732C79.0393 26.3079 81.1896 26.2877 82.221 26.1462C82.949 26.0384 83.1579 26.0317 83.6028 26.0991C84.7622 26.2743 85.3824 26.5572 86.353 27.3388C88.409 29.0031 90.1211 30.5258 92.0961 32.4528L93.5521 33.8812L93.0129 33.1401C92.0961 31.8801 90.0604 28.7336 89.9189 28.3697C89.8987 28.3023 90.1278 28.2821 90.9165 28.2821C92.0018 28.2821 92.231 28.2417 93.6667 27.8172C94.6509 27.5207 95.4059 27.4264 96.4641 27.4736C98.2707 27.5477 99.7334 28.0463 101.21 29.0974C104.432 31.3815 106.373 35.249 106.258 39.1569L106.238 39.9722L106.38 39.6892C106.771 38.9279 107.141 37.5331 107.249 36.4551C107.276 36.2058 107.317 36.0037 107.344 36.0037C107.377 36.0037 107.721 36.3405 108.119 36.7448C108.941 37.6005 108.941 37.6005 108.638 36.3944C108.173 34.5483 107.398 33.1872 105.935 31.6645C105.065 30.7549 104.762 30.2428 104.519 29.2995C104.337 28.5853 104.337 27.5881 104.519 26.8739C104.762 25.9171 104.661 24.7785 104.236 23.7543C103.872 22.8784 103.333 22.2046 102.362 21.4365C101.506 20.756 100.536 19.7655 99.9761 19.0042C99.4166 18.2428 98.4459 15.332 98.1089 13.4185C97.6505 10.7908 97.873 8.16301 98.7627 5.61612C99.093 4.65261 99.5514 3.70258 99.7402 3.57456C100.023 3.37243 100.414 3.42633 100.852 3.72279ZM85.1734 18.7549C89.5616 19.0244 93.7341 19.8194 97.8123 21.1603C99.8076 21.8138 102.308 22.8043 102.585 23.0468C102.8 23.2422 103.239 23.9228 103.441 24.3742C103.758 25.0884 103.994 26.1732 103.852 26.2608C103.812 26.2877 103.542 26.3147 103.259 26.3214C102.436 26.3416 101.83 26.7189 101.264 27.541C101.095 27.7903 100.637 27.7835 100.057 27.5275C97.8864 26.5505 95.6013 26.3955 93.0803 27.0424C91.995 27.3253 91.2805 27.4062 90.2627 27.359C88.7932 27.2917 87.9506 27.0558 86.4676 26.3147C85.288 25.7217 84.9442 25.5937 84.196 25.4522C83.4815 25.3107 81.9513 25.2973 80.4549 25.4051C79.7673 25.4522 79.1876 25.459 78.5001 25.4051C75.7296 25.2097 74.7927 25.3646 72.5682 26.3821C71.0785 27.0693 69.5281 27.6892 68.4901 28.0126C66.933 28.5045 64.9984 29.3669 63.9198 30.0474C62.0931 31.2198 60.1518 33.039 58.8036 34.8582C58.5947 35.1345 58.1093 35.8958 57.7251 36.5427C54.1727 42.4854 51.8876 48.637 50.7215 55.3883C50.499 56.6753 50.4653 56.7898 50.2564 56.8572C49.9395 56.9582 47.796 56.271 46.6973 55.7185C46.4276 55.5837 46.0838 55.4557 45.9221 55.4355C45.3761 55.3614 44.7896 55.6376 44.5604 56.0891C44.3515 56.4933 44.4795 63.0964 44.7222 64.2014C45.0862 65.8724 46.003 67.5501 47.1624 68.6483C47.3983 68.8707 47.8027 69.3087 48.0656 69.6253C49.0498 70.7977 50.4923 71.9903 51.773 72.6843C52.1438 72.8864 52.528 73.102 52.6358 73.1559C52.9055 73.3042 52.8583 73.4457 52.4673 73.6411C51.9955 73.8769 51.4495 73.9173 50.7215 73.7691C49.1037 73.4457 47.8432 72.59 46.7984 71.1076C45.7805 69.659 44.6009 68.2239 43.2325 66.7752C42.4169 65.9195 42.1135 65.677 42.1877 65.9667C42.2079 66.0341 42.2416 66.2093 42.2686 66.3575C42.4101 67.2604 42.9966 68.709 43.6167 69.6927C44.0481 70.3732 44.2773 70.8718 44.4256 71.4311C44.547 71.9027 44.5537 72.1183 44.4593 72.1183C44.4189 72.1183 43.8729 71.7073 43.2393 71.202C42.6056 70.7034 42.0731 70.3058 42.0529 70.3261C42.0327 70.3395 42.2214 71.0605 42.4708 71.9229C42.7135 72.7786 42.9022 73.4928 42.8887 73.5063C42.8483 73.5467 41.3316 72.4956 40.5564 71.8892C39.5251 71.0942 38.6758 70.3261 37.0041 68.6888C36.1884 67.887 35.1234 66.8561 34.6448 66.3912C33.7348 65.5153 33.027 64.6393 32.3597 63.5613C31.8541 62.7393 31.3149 61.6006 31.3149 61.3513C31.3149 61.075 31.8878 59.0941 32.4338 57.4636C33.8494 53.2255 35.7638 49.075 37.9815 45.4096C39.7745 42.4585 40.2059 41.7577 40.7856 40.8818C44.0953 35.9161 48.3218 31.5365 53.2021 28.0261C60.7921 22.5752 69.8247 19.3545 79.2416 18.7616C80.4953 18.6807 83.9061 18.6807 85.1734 18.7549ZM125.456 43.7387C125.55 43.806 126.494 45.3827 127.128 46.5483C129.029 50.025 130.539 53.4681 131.88 57.3895C132.433 58.9998 132.446 58.7505 131.745 59.6264C131.536 59.8959 131.105 60.4686 130.781 60.9066C130.458 61.3513 130.053 61.8297 129.878 61.9779C129.352 62.4226 128.88 63.0088 128.51 63.6893C127.667 65.2323 127.148 65.933 125.786 67.3277C124.843 68.2912 124.297 68.7898 122.578 70.2048C122.079 70.6158 121.243 71.3704 120.717 71.8758C120.185 72.3878 119.747 72.7651 119.72 72.7247C119.673 72.6439 119.976 71.5456 120.522 69.8544C121.257 67.577 122.423 63.3187 122.369 63.1436C122.355 63.1031 121.863 63.7769 121.284 64.6461C120.077 66.4518 120.01 66.5394 118.891 67.7657C117.819 68.9381 116.781 70.2048 115.83 71.4917C115.082 72.4956 114.833 72.718 114.833 72.3676C114.833 72.2868 115.136 71.2963 115.5 70.1644C116.821 66.0947 119.052 58.6696 118.971 58.5821C118.891 58.4877 118.581 58.8987 117.145 61.0481C114.779 64.5787 111.907 69.0526 110.006 72.179C109.75 72.5967 109.501 72.9605 109.454 72.9808C109.406 72.9942 109.319 72.9673 109.258 72.9134C109.17 72.8191 109.245 72.6439 109.905 71.303C110.694 69.686 111.327 68.143 111.82 66.627C112.278 65.2255 112.615 63.9454 112.548 63.878C112.514 63.8443 112.237 64.262 111.907 64.8415C110.829 66.7281 109.912 68.1026 108.847 69.4501C108.442 69.9487 108.166 70.2317 107.869 70.4204C106.939 71.0201 106.07 71.896 105.429 72.873C105.288 73.0886 105.139 73.2637 105.099 73.2637C105.052 73.2637 105.025 73.0077 105.025 72.4754C105.025 71.6804 104.931 71.1683 104.688 70.5888L104.573 70.3328L104.054 70.8853C103.677 71.2761 103.441 71.5995 103.232 72.0105C102.868 72.7247 102.753 72.7584 102.639 72.1924C102.517 71.5591 102.133 70.8718 101.634 70.3867C101.243 69.9959 101.203 69.9285 101.203 69.686C101.21 69.3895 101.317 68.9987 101.459 68.7764C101.547 68.6483 101.587 68.6416 102.039 68.7022C102.908 68.8101 104.917 68.7157 105.8 68.5271C106.933 68.2845 107.499 68.0756 107.6 67.8735C107.708 67.6646 107.714 66.3979 107.613 65.4411C107.465 63.9656 107.168 63.2985 106.231 62.3687C105.281 61.4389 105.288 61.3985 106.407 59.148C107.755 56.4327 109.157 54.3979 111.381 51.9453C112.743 50.436 112.837 50.3552 113.781 49.8903C115.069 49.2502 115.857 48.5697 116.397 47.6062C116.734 47.0132 117.387 46.5483 118.102 46.3934C118.291 46.3529 118.823 46.3058 119.295 46.2855C120.569 46.2316 121.648 45.9756 122.753 45.4703C123.373 45.1873 124.337 44.5405 124.843 44.0688C125.254 43.6848 125.321 43.6443 125.456 43.7387ZM132.959 60.6438C133.039 60.8123 133.498 62.4159 133.842 63.7769C134.03 64.5113 134.111 64.9628 134.084 65.0773C134.057 65.1784 133.727 65.5961 133.349 66.0071C131.287 68.2643 129.453 70.5484 128.112 72.5428C127.869 72.8999 127.647 73.1829 127.606 73.1694C127.431 73.1155 127.559 72.5361 127.937 71.6804C128.152 71.1952 128.51 70.2654 128.732 69.5984C129.426 67.4962 130.006 66.1823 131.085 64.2283C131.55 63.3861 132.102 62.1733 132.426 61.3041C132.723 60.5023 132.817 60.3878 132.959 60.6438ZM31.2947 62.0925C31.3351 62.1396 31.3823 62.4226 31.4093 62.7191C31.4901 63.6219 31.7126 64.6191 32.1238 65.8858C32.717 67.7253 33.0675 69.5108 33.0675 70.6764C33.0675 71.0403 33.0473 71.1076 32.9529 71.1076C32.7911 71.1076 32.7641 71.0807 32.2316 70.4676C31.9687 70.1711 31.3216 69.4838 30.7891 68.9448L29.8252 67.9611L30.0341 66.755C30.2431 65.5624 30.5869 63.9117 30.843 62.8606C31.052 62.0251 31.1329 61.8903 31.2947 62.0925ZM134.718 68.682C134.94 70.2856 135.048 71.2761 135.014 71.3098C134.866 71.458 131.779 73.8028 131.738 73.8028C131.705 73.8028 131.685 73.5939 131.685 73.3379C131.685 72.7854 131.698 72.7449 133.066 68.9852C133.936 66.5866 134.138 66.1217 134.313 66.1217C134.34 66.1217 134.522 67.2738 134.718 68.682Z" fill="#CFFFEA"/>
<path d="M119.652 27.5073C118.601 27.8374 117.698 28.1811 116.653 28.646C115.972 28.9492 115.723 29.03 115.359 29.0502C115.102 29.0637 114.9 29.0974 114.9 29.1243C114.9 29.1513 115.069 29.2456 115.271 29.3265C115.743 29.5219 115.979 29.7981 116.215 30.418C116.612 31.4691 116.976 32.0486 117.704 32.783C118.196 33.2816 118.715 33.5848 119.315 33.7465C119.632 33.8273 119.983 33.8408 121.23 33.8004C122.066 33.7802 123.056 33.7802 123.427 33.8139L124.101 33.861L124.614 34.3798C125.497 35.2692 125.874 36.2799 125.8 37.5803C125.78 37.9576 125.739 38.3215 125.719 38.3956C125.692 38.4697 125.766 38.3417 125.881 38.1126C126.15 37.587 126.703 37.075 127.202 36.8863C127.411 36.8055 127.64 36.7448 127.708 36.7448C127.964 36.7448 127.842 36.6235 127.546 36.5831C127.108 36.5157 126.467 36.1721 126.097 35.8015C125.733 35.4444 125.261 34.5685 124.984 33.7734C124.735 33.0323 124.607 32.1294 124.607 31.0514C124.607 30.2293 124.58 30.0474 124.445 29.6499C124.041 28.5112 123.117 27.6488 121.971 27.3456C121.304 27.1636 120.562 27.2175 119.652 27.5073ZM119.14 29.2591C119.221 29.313 119.214 29.3602 119.106 29.5825C119.032 29.7442 118.972 30.034 118.958 30.3641C118.931 30.8492 118.945 30.9301 119.14 31.3209C119.484 32.0216 120.03 32.372 120.839 32.4191C121.284 32.4461 121.405 32.4259 121.722 32.2844C122.497 31.9273 122.901 31.3478 122.976 30.4652C123.009 30.0946 123.05 29.9733 123.124 29.9733C123.191 29.9733 123.238 30.0744 123.265 30.2832C123.292 30.4517 123.4 30.8021 123.515 31.0581C123.744 31.5836 123.771 31.6915 123.859 32.3383C123.953 32.9716 123.886 33.039 123.238 32.9918C122.908 32.9649 122.571 32.9918 122.18 33.0727C121.863 33.1401 121.365 33.194 121.068 33.1872C119.477 33.1738 118.136 32.089 117.765 30.5325C117.522 29.5017 117.718 29.2187 118.675 29.2052C118.877 29.2052 119.086 29.2254 119.14 29.2591Z" fill="#CFFFEA"/>
<path d="M2.06006 102.472V103.112H71.3886H140.717V102.472V101.832H71.3886H2.06006V102.472Z" fill="#CFFFEA"/>
<path d="M27.9455 17.2614C9.88329 30.6068 2.94899 61.394 2.02441 76.9527H21.4735C27.3643 51.3981 38.2369 35.4077 42.9368 30.6068C57.9677 13.5616 81.5114 13.2718 91.7147 15.9255C88.7297 12.86 88.9216 7.45818 88.9216 5.36607C60.7618 -1.08205 41.4414 7.2897 27.9455 17.2614Z" fill="#CFFFEA"/>
</g>
<path d="M2.256 100V83.2H5.376V100H2.256ZM9.92006 100V83.2H17.7921C19.8081 83.2 21.3441 83.6 22.4001 84.4C23.4561 85.184 23.9841 86.24 23.9841 87.568C23.9841 88.464 23.7761 89.232 23.3601 89.872C22.9441 90.496 22.3841 90.984 21.6801 91.336C20.9921 91.672 20.2401 91.84 19.4241 91.84L19.8561 90.976C20.8001 90.976 21.6481 91.152 22.4001 91.504C23.1521 91.84 23.7441 92.336 24.1761 92.992C24.6241 93.648 24.8481 94.464 24.8481 95.44C24.8481 96.88 24.2961 98 23.1921 98.8C22.0881 99.6 20.4481 100 18.2721 100H9.92006ZM13.0401 97.552H18.0801C19.2481 97.552 20.1441 97.36 20.7681 96.976C21.3921 96.592 21.7041 95.976 21.7041 95.128C21.7041 94.296 21.3921 93.688 20.7681 93.304C20.1441 92.904 19.2481 92.704 18.0801 92.704H12.8001V90.28H17.4561C18.5441 90.28 19.3761 90.088 19.9521 89.704C20.5441 89.32 20.8401 88.744 20.8401 87.976C20.8401 87.192 20.5441 86.608 19.9521 86.224C19.3761 85.84 18.5441 85.648 17.4561 85.648H13.0401V97.552ZM28.1779 100V83.2H35.0899C36.5779 83.2 37.8499 83.44 38.9059 83.92C39.9779 84.4 40.8019 85.088 41.3779 85.984C41.9539 86.88 42.2419 87.944 42.2419 89.176C42.2419 90.408 41.9539 91.472 41.3779 92.368C40.8019 93.248 39.9779 93.928 38.9059 94.408C37.8499 94.872 36.5779 95.104 35.0899 95.104H29.9059L31.2979 93.688V100H28.1779ZM39.1699 100L34.9219 93.904H38.2579L42.5299 100H39.1699ZM31.2979 94.024L29.9059 92.536H34.9459C36.3219 92.536 37.3539 92.24 38.0419 91.648C38.7459 91.056 39.0979 90.232 39.0979 89.176C39.0979 88.104 38.7459 87.28 38.0419 86.704C37.3539 86.128 36.3219 85.84 34.9459 85.84H29.9059L31.2979 84.304V94.024ZM43.3566 100L50.9166 83.2H53.9886L61.5726 100H58.3086L51.8046 84.856H53.0526L46.5726 100H43.3566ZM46.8366 96.112L47.6766 93.664H56.7486L57.5886 96.112H46.8366ZM62.2809 94.576V92.08H68.8809V94.576H62.2809ZM75.2353 96.04L75.0673 92.344L83.8753 83.2H87.3793L80.0593 90.976L78.3313 92.872L75.2353 96.04ZM72.4513 100V83.2H75.5713V100H72.4513ZM84.1633 100L77.7313 92.344L79.7953 90.064L87.8113 100H84.1633ZM89.9357 100V83.2H96.8477C98.3357 83.2 99.6077 83.44 100.664 83.92C101.736 84.4 102.56 85.088 103.136 85.984C103.712 86.88 104 87.944 104 89.176C104 90.408 103.712 91.472 103.136 92.368C102.56 93.248 101.736 93.928 100.664 94.408C99.6077 94.872 98.3357 95.104 96.8477 95.104H91.6637L93.0557 93.688V100H89.9357ZM100.928 100L96.6797 93.904H100.016L104.288 100H100.928ZM93.0557 94.024L91.6637 92.536H96.7037C98.0797 92.536 99.1117 92.24 99.7997 91.648C100.504 91.056 100.856 90.232 100.856 89.176C100.856 88.104 100.504 87.28 99.7997 86.704C99.1117 86.128 98.0797 85.84 96.7037 85.84H91.6637L93.0557 84.304V94.024ZM115.362 100.24C114.05 100.24 112.842 100.024 111.738 99.592C110.634 99.16 109.674 98.56 108.858 97.792C108.042 97.008 107.41 96.096 106.962 95.056C106.514 94 106.29 92.848 106.29 91.6C106.29 90.352 106.514 89.208 106.962 88.168C107.41 87.112 108.042 86.2 108.858 85.432C109.674 84.648 110.634 84.04 111.738 83.608C112.842 83.176 114.042 82.96 115.338 82.96C116.65 82.96 117.85 83.176 118.938 83.608C120.042 84.04 121.002 84.648 121.818 85.432C122.634 86.2 123.266 87.112 123.714 88.168C124.162 89.208 124.386 90.352 124.386 91.6C124.386 92.848 124.162 94 123.714 95.056C123.266 96.112 122.634 97.024 121.818 97.792C121.002 98.56 120.042 99.16 118.938 99.592C117.85 100.024 116.658 100.24 115.362 100.24ZM115.338 97.504C116.186 97.504 116.97 97.36 117.69 97.072C118.41 96.784 119.034 96.376 119.562 95.848C120.09 95.304 120.498 94.68 120.786 93.976C121.09 93.256 121.242 92.464 121.242 91.6C121.242 90.736 121.09 89.952 120.786 89.248C120.498 88.528 120.09 87.904 119.562 87.376C119.034 86.832 118.41 86.416 117.69 86.128C116.97 85.84 116.186 85.696 115.338 85.696C114.49 85.696 113.706 85.84 112.986 86.128C112.282 86.416 111.658 86.832 111.114 87.376C110.586 87.904 110.17 88.528 109.866 89.248C109.578 89.952 109.434 90.736 109.434 91.6C109.434 92.448 109.578 93.232 109.866 93.952C110.17 94.672 110.586 95.304 111.114 95.848C111.642 96.376 112.266 96.784 112.986 97.072C113.706 97.36 114.49 97.504 115.338 97.504ZM127.694 100V83.2H130.814V97.36H139.598V100H127.694Z" fill="#CFFFEA"/>
<defs>
<clipPath id="clip0_86_10">
<rect width="141.296" height="103.704" fill="white"/>
</clipPath>
</defs>
</svg>
